<svg xmlns="http://www.w3.org/2000/svg" viewBox="0 0 1200 800" style="background:#f8f9fa;font-family:'PingFang SC','Microsoft YaHei',sans-serif;">
  <defs>
    <linearGradient id="bg" x1="0%" y1="0%" x2="100%" y2="100%">
      <stop offset="0%" style="stop-color:#e3f2fd;stop-opacity:1" />
      <stop offset="100%" style="stop-color:#f3e5f5;stop-opacity:1" />
    </linearGradient>
    <filter id="shadow" x="-5%" y="-5%" width="110%" height="110%">
      <feDropShadow dx="2" dy="2" stdDeviation="3" flood-opacity="0.15"/>
    </filter>
  </defs>
  <rect width="1200" height="800" fill="url(#bg)"/>
  
  <text x="600" y="50" text-anchor="middle" font-size="28" font-weight="bold" fill="#1a1a2e">AI守望京张 · 区位图</text>
  <text x="600" y="78" text-anchor="middle" font-size="16" fill="#607d8b">Location Map</text>
  
  <g transform="translate(150, 120)">
    <rect x="0" y="0" width="300" height="200" rx="10" fill="#fff" stroke="#0f3460" stroke-width="2" filter="url(#shadow)"/>
    <text x="150" y="35" text-anchor="middle" font-size="14" font-weight="bold" fill="#0f3460">北京</text>
    <rect x="20" y="55" width="260" height="130" rx="5" fill="#e8f5e9" stroke="#4caf50" stroke-width="1"/>
    <text x="150" y="120" text-anchor="middle" font-size="18" fill="#2e7d32">海淀区</text>
    <polygon points="100,80 200,80 220,100 220,160 180,180 120,180 80,160 80,100" fill="#00d4ff" fill-opacity="0.3" stroke="#00d4ff" stroke-width="2"/>
    <text x="150" y="135" text-anchor="middle" font-size="13" font-weight="bold" fill="#0f3460">设计范围</text>
    <text x="150" y="152" text-anchor="middle" font-size="11" fill="#0f3460">11.4 km²</text>
  </g>
  
  <g transform="translate(500, 120)">
    <rect x="0" y="0" width="550" height="350" rx="10" fill="#fff" stroke="#0f3460" stroke-width="2" filter="url(#shadow)"/>
    <text x="275" y="35" text-anchor="middle" font-size="14" font-weight="bold" fill="#0f3460">区位关系</text>
    
    <circle cx="100" cy="180" r="50" fill="#ffcdd2" stroke="#c62828" stroke-width="2"/>
    <text x="100" y="175" text-anchor="middle" font-size="11" font-weight="bold" fill="#c62828">海淀</text>
    <text x="100" y="190" text-anchor="middle" font-size="9" fill="#c62828">区政府</text>
    
    <circle cx="250" cy="100" r="45" fill="#c8e6c9" stroke="#2e7d32" stroke-width="2"/>
    <text x="250" y="95" text-anchor="middle" font-size="11" font-weight="bold" fill="#2e7d32">中关村</text>
    <text x="250" y="110" text-anchor="middle" font-size="9" fill="#2e7d32">科技园</text>
    
    <circle cx="420" cy="180" r="55" fill="#bbdefb" stroke="#1565c0" stroke-width="2"/>
    <text x="420" y="175" text-anchor="middle" font-size="11" font-weight="bold" fill="#1565c0">设计</text>
    <text x="420" y="190" text-anchor="middle" font-size="11" font-weight="bold" fill="#1565c0">范围</text>
    
    <line x1="150" y1="160" x2="205" y2="120" stroke="#90a4ae" stroke-width="2" stroke-dasharray="5,3"/>
    <line x1="295" y1="120" x2="365" y2="160" stroke="#90a4ae" stroke-width="2" stroke-dasharray="5,3"/>
    
    <circle cx="250" cy="250" r="35" fill="#fff9c4" stroke="#f57f17" stroke-width="2"/>
    <text x="250" y="245" text-anchor="middle" font-size="10" font-weight="bold" fill="#f57f17">清华/北大</text>
    <text x="250" y="258" text-anchor="middle" font-size="8" fill="#f57f17">科研资源</text>
    
    <circle cx="420" cy="280" r="30" fill="#e1bee7" stroke="#6a1b9a" stroke-width="2"/>
    <text x="420" y="278" text-anchor="middle" font-size="10" font-weight="bold" fill="#6a1b9a">京张铁路</text>
    <text x="420" y="290" text-anchor="middle" font-size="8" fill="#6a1b9a">遗址公园</text>
    
    <line x1="250" y1="250" x2="400" y2="270" stroke="#90a4ae" stroke-width="1.5" stroke-dasharray="4,2"/>
    <line x1="420" y1="225" x2="420" y2="250" stroke="#90a4ae" stroke-width="1.5" stroke-dasharray="4,2"/>
  </g>
  
  <g transform="translate(150, 500)">
    <rect x="0" y="0" width="900" height="250" rx="10" fill="#fff" stroke="#0f3460" stroke-width="2" filter="url(#shadow)"/>
    <text x="450" y="30" text-anchor="middle" font-size="14" font-weight="bold" fill="#0f3460">交通可达性</text>
    
    <g transform="translate(60, 50)">
      <rect x="0" y="0" width="180" height="80" rx="8" fill="#e3f2fd" stroke="#1976d2"/>
      <text x="90" y="25" text-anchor="middle" font-size="11" font-weight="bold" fill="#1565c0">大钟寺站</text>
      <text x="90" y="45" text-anchor="middle" font-size="20" font-weight="bold" fill="#0d47a1">5 min</text>
      <text x="90" y="62" text-anchor="middle" font-size="9" fill="#1565c0">步行</text>
    </g>
    
    <g transform="translate(280, 50)">
      <rect x="0" y="0" width="180" height="80" rx="8" fill="#e8f5e9" stroke="#388e3c"/>
      <text x="90" y="25" text-anchor="middle" font-size="11" font-weight="bold" fill="#1b5e20">五道口站</text>
      <text x="90" y="45" text-anchor="middle" font-size="20" font-weight="bold" fill="#1b5e20">8 min</text>
      <text x="90" y="62" text-anchor="middle" font-size="9" fill="#1b5e20">步行</text>
    </g>
    
    <g transform="translate(500, 50)">
      <rect x="0" y="0" width="180" height="80" rx="8" fill="#fff3e0" stroke="#f57c00"/>
      <text x="90" y="25" text-anchor="middle" font-size="11" font-weight="bold" fill="#e65100">首都机场</text>
      <text x="90" y="45" text-anchor="middle" font-size="20" font-weight="bold" fill="#e65100">45 min</text>
      <text x="90" y="62" text-anchor="middle" font-size="9" fill="#e65100">车程</text>
    </g>
    
    <g transform="translate(720, 50)">
      <rect x="0" y="0" width="150" height="80" rx="8" fill="#f3e5f5" stroke="#7b1fa2"/>
      <text x="75" y="25" text-anchor="middle" font-size="11" font-weight="bold" fill="#4a148c">雄安新区</text>
      <text x="75" y="45" text-anchor="middle" font-size="20" font-weight="bold" fill="#4a148c">90 min</text>
      <text x="75" y="62" text-anchor="middle" font-size="9" fill="#4a148c">高铁</text>
    </g>
    
    <g transform="translate(60, 160)">
      <rect x="0" y="0" width="810" height="70" rx="8" fill="#fafafa" stroke="#78909c"/>
      <text x="405" y="22" text-anchor="middle" font-size="12" font-weight="bold" fill="#37474f">区位优势</text>
      <text x="405" y="42" text-anchor="middle" font-size="10" fill="#607d8b">紧邻中关村科技创新核心区 · 坐拥京张铁路百年文化品牌 · 汇聚清华北大顶级科研资源 · 交通网络四通八达</text>
    </g>
  </g>
  
  <text x="600" y="770" text-anchor="middle" font-size="12" fill="#90a4ae">图 1 · 区位分析图 | AI Guardian Jing-Zhang · Site Location Map</text>
</svg>