<svg xmlns="http://www.w3.org/2000/svg" width="1960" height="980" viewBox="0 0 1960 980">
<rect width="1960" height="980" fill="#f7f9fc"/>
<style>.title{font:700 42px -apple-system,BlinkMacSystemFont,"PingFang SC","Noto Sans CJK SC",sans-serif;fill:#142b4a}.sub{font:22px -apple-system,BlinkMacSystemFont,"PingFang SC","Noto Sans CJK SC",sans-serif;fill:#60748d}.zone{font:700 26px -apple-system,BlinkMacSystemFont,"PingFang SC","Noto Sans CJK SC",sans-serif;fill:#fff}.label{font:700 19px -apple-system,BlinkMacSystemFont,"PingFang SC","Noto Sans CJK SC",sans-serif;fill:#183654}.small{font:17px -apple-system,BlinkMacSystemFont,"PingFang SC","Noto Sans CJK SC",sans-serif;fill:#60748d}.tiny{font:15px -apple-system,BlinkMacSystemFont,"PingFang SC","Noto Sans CJK SC",sans-serif;fill:#71849b}</style>
<text x="70" y="72" class="title">Human-first mainline: walk the public spine before calling the machine</text>
<text x="70" y="110" class="sub">A conceptual north-to-south reading of three provisional focus areas · five repeatable human rights</text>
<line x1="120" y1="220" x2="1680" y2="220" stroke="#173554" stroke-width="12" stroke-linecap="round"/>
<path d="M1660 202 L1690 220 L1660 238" fill="none" stroke="#173554" stroke-width="8" stroke-linecap="round" stroke-linejoin="round"/>
<text x="120" y="182" class="small">NORTH / announced order</text>
<text x="1680" y="182" text-anchor="end" class="small">SOUTH / public reading</text>
<circle cx="185" cy="220" r="24" fill="#fff" stroke="#3d76ea" stroke-width="8"/>
<text x="185" y="228" text-anchor="middle" class="label">01</text>
<rect x="145" y="276" width="420" height="182" rx="18" fill="#fff" stroke="#3d76ea" stroke-width="4"/>
<rect x="145" y="276" width="420" height="62" rx="18" fill="#3d76ea"/>
<text x="169" y="316" class="zone">Zhongzhiyuan</text>
<text x="169" y="374" class="label">bounded testing / stop</text>
<text x="169" y="410" class="small">same five-stage path; different first question</text>
<text x="169" y="438" class="tiny">existing GeoJSON anchors / provisional</text>
<circle cx="715" cy="220" r="24" fill="#fff" stroke="#ed5b78" stroke-width="8"/>
<text x="715" y="228" text-anchor="middle" class="label">02</text>
<rect x="675" y="276" width="420" height="182" rx="18" fill="#fff" stroke="#ed5b78" stroke-width="4"/>
<rect x="675" y="276" width="420" height="62" rx="18" fill="#ed5b78"/>
<text x="699" y="316" class="zone">AI Origin Community</text>
<text x="699" y="374" class="label">staffed access / skill transition</text>
<text x="699" y="410" class="small">same five-stage path; different first question</text>
<text x="699" y="438" class="tiny">existing GeoJSON anchors / provisional</text>
<circle cx="1245" cy="220" r="24" fill="#fff" stroke="#16a38e" stroke-width="8"/>
<text x="1245" y="228" text-anchor="middle" class="label">03</text>
<rect x="1205" y="276" width="420" height="182" rx="18" fill="#fff" stroke="#16a38e" stroke-width="4"/>
<rect x="1205" y="276" width="420" height="62" rx="18" fill="#16a38e"/>
<text x="1229" y="316" class="zone">Dazhongsi</text>
<text x="1229" y="374" class="label">public problem desk / replay</text>
<text x="1229" y="410" class="small">same five-stage path; different first question</text>
<text x="1229" y="438" class="tiny">existing GeoJSON anchors / provisional</text>
<rect x="170" y="560" width="300" height="128" rx="16" fill="#dce9ff" stroke="#c8d4e2" stroke-width="2"/>
<text x="188" y="594" class="label">01</text>
<text x="188" y="630" class="label">Enter</text>
<text x="188" y="662" class="small">ordinary path</text>
<rect x="530" y="560" width="300" height="128" rx="16" fill="#ffe3ea" stroke="#c8d4e2" stroke-width="2"/>
<text x="548" y="594" class="label">02</text>
<text x="548" y="630" class="label">Staffed choice</text>
<text x="548" y="662" class="small">human explanation</text>
<rect x="890" y="560" width="300" height="128" rx="16" fill="#e5efff" stroke="#c8d4e2" stroke-width="2"/>
<text x="908" y="594" class="label">03</text>
<text x="908" y="630" class="label">Bounded interface</text>
<text x="908" y="662" class="small">minimum permission</text>
<rect x="1250" y="560" width="300" height="128" rx="16" fill="#dff7f1" stroke="#c8d4e2" stroke-width="2"/>
<text x="1268" y="594" class="label">04</text>
<text x="1268" y="630" class="label">Blue-green pause</text>
<text x="1268" y="662" class="small">screen-free pause</text>
<rect x="1610" y="560" width="300" height="128" rx="16" fill="#edf1f5" stroke="#c8d4e2" stroke-width="2"/>
<text x="1628" y="594" class="label">05</text>
<text x="1628" y="630" class="label">Exit / replay</text>
<text x="1628" y="662" class="small">stop / appeal</text>
<text x="70" y="800" class="tiny">Concept recommendation only · provisional geometry · no section, capacity, permit, or operating claim</text>
<text x="1730" y="800" text-anchor="end" class="tiny">official_boundary=false · geometry_role=provisional_constraint · offline asset</text>
</svg>
