<?xml version="1.0" encoding="UTF-8"?>
<svg xmlns="http://www.w3.org/2000/svg" viewBox="0 0 1200 800" width="1200" height="800">
<style>
  .title { font-family: 'Microsoft YaHei', 'PingFang SC', sans-serif; font-size: 28px; font-weight: bold; fill: #1F2937; }
  .subtitle { font-family: 'Microsoft YaHei', sans-serif; font-size: 16px; fill: #374151; }
  .label { font-family: 'Microsoft YaHei', sans-serif; font-size: 13px; fill: #1F2937; }
  .small { font-family: 'Microsoft YaHei', sans-serif; font-size: 11px; fill: #9CA3AF; }
  .legend { font-family: 'Microsoft YaHei', sans-serif; font-size: 12px; }
  .note { font-family: 'Microsoft YaHei', sans-serif; font-size: 10px; fill: #9CA3AF; font-style: italic; }
  .en { font-family: 'Inter', 'Segoe UI', sans-serif; font-size: 11px; fill: #9CA3AF; }
</style>
<rect width="1200" height="800" fill="#FFFFFF"/>

<text x="600" y="40" text-anchor="middle" class="title">交通系统与蓝绿空间网络图</text>
<text x="600" y="65" text-anchor="middle" class="en">Mobility System &amp; Blue-Green Network</text>

<!-- Central green spine -->
<rect x="280" y="110" width="40" height="580" rx="8" fill={C_GREEN} opacity="0.3" stroke={C_GREEN} stroke-width="3"/>
<text x="300" y="30" text-anchor="middle" class="label" fill={C_GREEN}>京张遗址公园</text>
<text x="300" y="400" text-anchor="middle" class="label" fill={C_GREEN} transform="rotate(-90, 300, 400)">绿色主轴 (Green Spine)</text>

<!-- Xiaoyuehe river (east) -->
<path d="M340,120 Q360,200 350,300 Q340,400 360,500 Q370,600 350,690" fill="none" stroke={C_WATER} stroke-width="8" opacity="0.6"/>
<text x="385" y="400" class="label" fill="#3B82F6">小月河</text>
<text x="385" y="418" class="small" fill="#3B82F6">Xiaoyuehe</text>

<!-- Metro lines -->
<line x1="150" y1="120" x2="150" y2="690" stroke={C_RED} stroke-width="2" stroke-dasharray="4,4"/>
<text x="120" y="400" class="small" fill={C_RED} transform="rotate(-90, 120, 400)">M4 号线</text>

<line x1="100" y1="400" x2="500" y2="400" stroke="#F59E0B" stroke-width="2" stroke-dasharray="4,4"/>
<text x="250" y="390" text-anchor="middle" class="small" fill="#F59E0B">M13 号线</text>

<line x1="300" y1="640" x2="500" y2="640" stroke="#3B82F6" stroke-width="2" stroke-dasharray="4,4"/>
<text x="430" y="630" text-anchor="middle" class="small" fill="#3B82F6">M10 号线</text>

<!-- Proposed AI Innovation Line (APM/tram concept) -->
<line x1="280" y1="140" x2="320" y2="660" stroke={C_PURPLE} stroke-width="3" stroke-dasharray="10,6"/>
<text x="200" y="420" class="label" fill={C_PURPLE} transform="rotate(-90, 200, 420)">概念: AI创新线 (APM/有轨电车)</text>

<!-- Bike/pedestrian network -->
<rect x="250" y="140" width="100" height="550" fill="none" stroke={C_GREEN} stroke-width="1" stroke-dasharray="2,2" opacity="0.4"/>
<text x="60" y="300" class="small" fill={C_GREEN}>慢行网络</text>
<text x="60" y="316" class="small" fill={C_GREEN}>Walking/Biking</text>

<!-- Key stations -->
<circle cx="300" cy="200" r="8" fill={C_BLUE}/>
<text x="315" y="204" class="small">清华园站</text>
<circle cx="300" cy="400" r="8" fill={C_PURPLE}/>
<text x="315" y="404" class="small">五道口</text>
<circle cx="300" cy="560" r="8" fill={C_ORANGE}/>
<text x="315" y="564" class="small">大钟寺</text>
<circle cx="300" cy="680" r="8" fill={C_RED}/>
<text x="315" y="684" class="small">北京北站</text>

<!-- Legend -->
<rect x="550" y="110" width="300" height="250" rx="8" fill={C_GRAY_LIGHT}/>
<text x="700" y="140" text-anchor="middle" class="label" font-weight="bold">图例</text>
<line x1="570" y1="160" x2="610" y2="160" stroke={C_RED} stroke-width="2" stroke-dasharray="4,4"/>
<text x="620" y="164" class="legend">既有地铁 (Existing Metro)</text>
<line x1="570" y1="185" x2="610" y2="185" stroke={C_PURPLE} stroke-width="3" stroke-dasharray="10,6"/>
<text x="620" y="189" class="legend">概念AI创新线 (Proposed)</text>
<rect x="570" y="205" width="20" height="15" rx="3" fill={C_GREEN} opacity="0.4" stroke={C_GREEN} stroke-width="1"/>
<text x="620" y="218" class="legend">慢行网络 (Walk/Bike)</text>
<line x1="570" y="238" x2="610" y2="238" stroke={C_WATER} stroke-width="6" opacity="0.6"/>
<text x="620" y="242" class="legend">水系 (Blue network)</text>
<circle cx="580" cy="265" r="5" fill={C_BLUE}/>
<text x="620" y="269" class="legend">关键节点 (Key nodes)</text>
<text x="580" y="320" class="note">* 轨道线位为概念建议</text>
<text x="580" y="335" class="note">* 不替代专业交通规划</text>

<!-- Key metrics -->
<rect x="550" y="400" width="300" height="180" rx="8" fill={C_GRAY_LIGHT}/>
<text x="700" y="430" text-anchor="middle" class="label" font-weight="bold">关键指标</text>
<text x="570" y="460" class="legend">慢行覆盖率: &gt;90% (目标)</text>
<text x="570" y="482" class="legend">绿地率: &gt;35% (参考国标)</text>
<text x="570" y="504" class="legend">公共空间300m覆盖率: &gt;85%</text>
<text x="570" y="526" class="legend">轨道交通站点800m覆盖: &gt;80%</text>
<text x="570" y="548" class="legend">东西缝合节点: 3-5处新增</text>

<text x="600" y="780" text-anchor="middle" class="note">Source: Design proposal | Conceptual transport strategy | 2026-08-08</text>

</svg>